<svg width="500" height="501" viewBox="0 0 500 501" fill="none" xmlns="http://www.w3.org/2000/svg">
<path d="M215.804 0.617598C166.264 3.84378 150.24 6.09233 125.128 13.229C96.9879 21.2456 77.6413 31.6085 56.9267 49.6947C41.977 62.7949 30.3495 78.9259 22.1418 97.9897C17.7449 108.157 8.56012 137.779 6.31279 149.12C1.52498 172.974 -0.624644 214.132 0.157038 266.436C1.03643 322.845 3.67461 345.721 12.0777 372.997C17.6472 390.986 21.1647 399.784 27.9068 412.689C45.9832 447.591 78.6184 473.791 118.875 485.816C158.155 497.45 196.75 501.36 264.659 500.285C316.054 499.503 337.844 497.254 366.864 489.922C405.459 480.243 427.542 468.512 450.797 445.342C469.362 426.865 479.035 409.658 488.611 377.983C492.91 363.514 494.766 353.934 496.721 335.554C501.313 292.245 501.02 204.356 496.232 165.251C492.519 135.824 479.524 97.8919 465.746 76.5795C454.998 60.1553 439.756 45.0021 422.461 33.6615C406.143 23.1031 390.314 16.6508 365.593 10.6872C336.476 3.64826 308.433 1.00865 257.819 0.519835C237.691 0.422072 218.735 0.422072 215.804 0.617598ZM209.648 134.944C213.263 136.313 314.1 237.009 316.543 241.701C318.986 246.492 318.986 254.117 316.543 258.908C315.468 260.863 291.431 285.695 262.998 314.046C206.521 370.455 210.136 367.425 199.193 366.447C193.526 365.861 188.152 362.439 184.536 357.257C181.41 352.565 180.628 343.082 183.071 338.194C183.95 336.336 203.688 315.806 226.845 292.538L269.056 250.305L226.845 207.973C203.688 184.803 184.048 164.371 183.168 162.611C181.214 158.798 181.116 150.684 182.973 146.382C184.536 142.374 189.91 136.997 193.819 135.335C197.336 133.771 205.837 133.575 209.648 134.944Z" fill="#F79400"/>
</svg>
