<svg width="500" height="500" viewBox="0 0 500 500" fill="none" xmlns="http://www.w3.org/2000/svg">
<path d="M284.196 0.162032C333.736 3.38822 349.76 5.63677 374.872 12.7735C403.012 20.7901 422.359 31.1529 443.073 49.2391C458.023 62.3394 469.65 78.4703 477.858 97.5341C482.255 107.701 491.44 137.324 493.687 148.664C498.475 172.518 500.625 213.677 499.843 265.98C498.964 322.389 496.325 345.266 487.922 372.542C482.353 390.53 478.835 399.329 472.093 412.234C454.017 447.135 421.382 473.336 381.125 485.36C341.845 496.994 303.25 500.905 235.341 499.829C183.946 499.047 162.156 496.799 133.136 489.466C94.5408 479.788 72.4582 468.056 49.2032 444.886C30.6382 426.409 20.9649 409.203 11.3893 377.528C7.09006 363.059 5.23357 353.478 3.27936 335.098C-1.31302 291.789 -1.01989 203.9 3.76791 164.795C7.4809 135.368 20.4764 97.4363 34.2535 76.124C45.0016 59.6998 60.2444 44.5465 77.5392 33.206C93.8568 22.6475 109.686 16.1952 134.407 10.2316C163.524 3.19269 191.567 0.553085 242.181 0.064269C262.309 -0.0334942 281.265 -0.0334942 284.196 0.162032ZM290.352 134.489C286.737 135.857 185.9 236.553 183.457 241.246C181.014 246.036 181.014 253.662 183.457 258.452C184.532 260.407 208.569 285.239 237.002 313.591C293.479 370 289.864 366.969 300.807 365.992C306.474 365.405 311.848 361.983 315.464 356.802C318.59 352.109 319.372 342.626 316.929 337.738C316.05 335.881 296.312 315.35 273.155 292.083L230.944 249.849L273.155 207.518C296.312 184.348 315.952 163.915 316.832 162.155C318.786 158.343 318.884 150.228 317.027 145.927C315.464 141.919 310.09 136.542 306.181 134.88C302.664 133.315 294.163 133.12 290.352 134.489Z" fill="#5B59D0"/>
</svg>
