<svg width="501" height="500" viewBox="0 0 501 500" fill="none" xmlns="http://www.w3.org/2000/svg">
<path d="M216.67 0.162032C167.13 3.38822 151.106 5.63677 125.994 12.7735C97.8539 20.7901 78.5072 31.1529 57.7927 49.2391C42.843 62.3394 31.2155 78.4703 23.0078 97.5341C18.6109 107.701 9.42609 137.324 7.17875 148.664C2.39095 172.518 0.241323 213.677 1.02301 265.98C1.9024 322.389 4.54057 345.266 12.9437 372.542C18.5131 390.53 22.0307 399.329 28.7727 412.234C46.8491 447.135 79.4843 473.336 119.741 485.36C159.021 496.994 197.616 500.905 265.525 499.829C316.92 499.047 338.71 496.799 367.73 489.466C406.325 479.788 428.408 468.056 451.663 444.886C470.228 426.409 479.901 409.203 489.477 377.528C493.776 363.059 495.632 353.478 497.587 335.098C502.179 291.789 501.886 203.9 497.098 164.795C493.385 135.368 480.39 97.4363 466.612 76.124C455.864 59.6998 440.622 44.5465 423.327 33.206C407.009 22.6475 391.18 16.1952 366.459 10.2316C337.342 3.19269 309.299 0.553085 258.685 0.064269C238.557 -0.0334942 219.601 -0.0334942 216.67 0.162032ZM210.514 134.489C214.129 135.857 314.966 236.553 317.409 241.246C319.852 246.036 319.852 253.662 317.409 258.452C316.334 260.407 292.297 285.239 263.864 313.591C207.387 370 211.002 366.969 200.059 365.992C194.392 365.405 189.018 361.983 185.402 356.802C182.276 352.109 181.494 342.626 183.937 337.738C184.816 335.881 204.553 315.35 227.711 292.083L269.922 249.849L227.711 207.518C204.553 184.348 184.914 163.915 184.034 162.155C182.08 158.343 181.982 150.228 183.839 145.927C185.402 141.919 190.776 136.542 194.685 134.88C198.202 133.315 206.703 133.12 210.514 134.489Z" fill="#082E75"/>
</svg>
