<svg width="500" height="501" viewBox="0 0 500 501" fill="none" xmlns="http://www.w3.org/2000/svg">
<path d="M215.804 0.61711C166.264 3.84329 150.24 6.09184 125.128 13.2286C96.9879 21.2451 77.6413 31.608 56.9267 49.6942C41.977 62.7945 30.3495 78.9254 22.1418 97.9892C17.7449 108.157 8.56012 137.779 6.31279 149.119C1.52498 172.973 -0.624644 214.132 0.157038 266.435C1.03643 322.844 3.67461 345.721 12.0777 372.997C17.6472 390.985 21.1647 399.784 27.9068 412.689C45.9832 447.59 78.6184 473.791 118.875 485.815C158.155 497.449 196.75 501.36 264.659 500.284C316.054 499.502 337.844 497.254 366.864 489.922C405.459 480.243 427.542 468.511 450.797 445.342C469.362 426.864 479.035 409.658 488.611 377.983C492.91 363.514 494.766 353.933 496.721 335.554C501.313 292.244 501.02 204.355 496.232 165.25C492.519 135.823 479.524 97.8914 465.746 76.5791C454.998 60.1549 439.756 45.0016 422.461 33.661C406.143 23.1026 390.314 16.6503 365.593 10.6867C336.476 3.64777 308.433 1.00816 257.819 0.519347C237.691 0.421584 218.735 0.421584 215.804 0.61711ZM209.648 134.944C213.263 136.312 314.1 237.008 316.543 241.701C318.986 246.491 318.986 254.117 316.543 258.907C315.468 260.863 291.431 285.694 262.998 314.046C206.521 370.455 210.136 367.424 199.193 366.447C193.526 365.86 188.152 362.438 184.536 357.257C181.41 352.564 180.628 343.081 183.071 338.193C183.95 336.336 203.688 315.805 226.845 292.538L269.056 250.304L226.845 207.973C203.688 184.803 184.048 164.37 183.168 162.611C181.214 158.798 181.116 150.683 182.973 146.382C184.536 142.374 189.91 136.997 193.819 135.335C197.336 133.77 205.837 133.575 209.648 134.944Z" fill="#258646"/>
</svg>
