<svg width="501" height="501" viewBox="0 0 501 501" fill="none" xmlns="http://www.w3.org/2000/svg">
<path d="M216.737 0.889327C167.197 4.11551 151.173 6.36406 126.061 13.5008C97.9209 21.5173 78.5743 31.8802 57.8597 49.9664C42.91 63.0667 31.2825 79.1976 23.0748 98.2614C18.6779 108.429 9.4931 138.051 7.24577 149.391C2.45797 173.246 0.30834 214.404 1.09002 266.707C1.96941 323.117 4.60759 345.993 13.0107 373.269C18.5802 391.257 22.0977 400.056 28.8397 412.961C46.9161 447.862 79.5514 474.063 119.808 486.088C159.088 497.721 197.683 501.632 265.592 500.557C316.987 499.775 338.777 497.526 367.797 490.194C406.392 480.515 428.475 468.784 451.73 445.614C470.295 427.137 479.968 409.93 489.544 378.255C493.843 363.786 495.699 354.205 497.654 335.826C502.246 292.517 501.953 204.628 497.165 165.522C493.452 136.096 480.457 98.1636 466.679 76.8513C455.931 60.4271 440.689 45.2738 423.394 33.9333C407.076 23.3748 391.247 16.9225 366.526 10.9589C337.409 3.91998 309.366 1.28038 258.752 0.791564C238.624 0.693801 219.668 0.693801 216.737 0.889327ZM210.581 135.216C214.196 136.585 315.033 237.281 317.476 241.973C319.919 246.764 319.919 254.389 317.476 259.179C316.401 261.135 292.364 285.967 263.931 314.318C207.454 370.727 211.069 367.697 200.126 366.719C194.459 366.132 189.085 362.711 185.469 357.529C182.343 352.837 181.561 343.354 184.004 338.465C184.883 336.608 204.621 316.078 227.778 292.81L269.989 250.576L227.778 208.245C204.621 185.075 184.981 164.643 184.101 162.883C182.147 159.07 182.049 150.956 183.906 146.654C185.469 142.646 190.843 137.269 194.752 135.607C198.269 134.043 206.77 133.847 210.581 135.216Z" fill="#355FAE"/>
</svg>
