<svg width="501" height="501" viewBox="0 0 501 501" fill="none" xmlns="http://www.w3.org/2000/svg">
<path d="M284.263 0.889327C333.803 4.11551 349.827 6.36406 374.939 13.5008C403.079 21.5173 422.426 31.8802 443.14 49.9664C458.09 63.0667 469.718 79.1976 477.925 98.2614C482.322 108.429 491.507 138.051 493.754 149.391C498.542 173.246 500.692 214.404 499.91 266.707C499.031 323.117 496.392 345.993 487.989 373.269C482.42 391.257 478.902 400.056 472.16 412.961C454.084 447.862 421.449 474.063 381.192 486.088C341.912 497.721 303.317 501.632 235.408 500.557C184.013 499.775 162.223 497.526 133.203 490.194C94.6078 480.515 72.5252 468.784 49.2702 445.614C30.7053 427.137 21.0319 409.93 11.4563 378.255C7.15708 363.786 5.30058 354.205 3.34638 335.826C-1.246 292.517 -0.952872 204.628 3.83493 165.522C7.54792 136.096 20.5434 98.1636 34.3205 76.8513C45.0687 60.4271 60.3115 45.2738 77.6062 33.9333C93.9238 23.3748 109.753 16.9225 134.474 10.9589C163.591 3.91998 191.634 1.28038 242.248 0.791564C262.376 0.693801 281.332 0.693801 284.263 0.889327ZM290.419 135.216C286.804 136.585 185.967 237.281 183.524 241.973C181.081 246.764 181.081 254.389 183.524 259.179C184.599 261.135 208.636 285.967 237.069 314.318C293.546 370.727 289.931 367.697 300.874 366.719C306.541 366.132 311.915 362.711 315.531 357.529C318.657 352.837 319.439 343.354 316.996 338.465C316.117 336.608 296.379 316.078 273.222 292.81L231.011 250.576L273.222 208.245C296.379 185.075 316.019 164.643 316.899 162.883C318.853 159.07 318.951 150.956 317.094 146.654C315.531 142.646 310.157 137.269 306.248 135.607C302.731 134.043 294.23 133.847 290.419 135.216Z" fill="#355FAE"/>
</svg>
