<svg width="500" height="500" viewBox="0 0 500 500" fill="none" xmlns="http://www.w3.org/2000/svg">
<path d="M215.804 0.162032C166.265 3.38822 150.24 5.63677 125.129 12.7735C96.988 20.7901 77.6414 31.1529 56.9268 49.2391C41.9772 62.3394 30.3496 78.4703 22.142 97.5341C17.745 107.701 8.56024 137.324 6.31291 148.664C1.5251 172.518 -0.624522 213.677 0.15716 265.98C1.03655 322.389 3.67473 345.266 12.0778 372.542C17.6473 390.53 21.1649 399.329 27.9069 412.234C45.9833 447.135 78.6185 473.336 118.875 485.36C158.155 496.994 196.75 500.905 264.659 499.829C316.054 499.047 337.844 496.799 366.864 489.466C405.459 479.788 427.542 468.056 450.797 444.886C469.362 426.409 479.035 409.203 488.611 377.528C492.91 363.059 494.767 353.478 496.721 335.098C501.313 291.789 501.02 203.9 496.232 164.795C492.519 135.368 479.524 97.4363 465.747 76.124C454.998 59.6998 439.756 44.5465 422.461 33.206C406.143 22.6475 390.314 16.1952 365.594 10.2316C336.476 3.19269 308.433 0.553085 257.819 0.064269C237.691 -0.0334942 218.735 -0.0334942 215.804 0.162032ZM209.648 134.489C213.263 135.857 314.1 236.553 316.543 241.246C318.986 246.036 318.986 253.662 316.543 258.452C315.468 260.407 291.431 285.239 262.998 313.591C206.521 370 210.137 366.969 199.193 365.992C193.526 365.405 188.152 361.983 184.536 356.802C181.41 352.109 180.628 342.626 183.071 337.738C183.95 335.881 203.688 315.35 226.845 292.083L269.056 249.849L226.845 207.518C203.688 184.348 184.048 163.915 183.168 162.155C181.214 158.343 181.117 150.228 182.973 145.927C184.536 141.919 189.91 136.542 193.819 134.88C197.336 133.315 205.837 133.12 209.648 134.489Z" fill="#153FA6"/>
</svg>
